<svg id="Layer_1" data-name="Layer 1" xmlns="http://www.w3.org/2000/svg" viewBox="0 0 907.65 115.19"><defs><style>.cls-1{fill:#56bebb;fill-rule:evenodd;}.cls-2{fill:#5e5f5e;}</style></defs><title>WILogoLine</title><path class="cls-1" d="M60.88,37h89.48c7.07,0,12.85,6.48,12.85,14.4v86.39c0,7.92-5.78,14.4-12.85,14.4H60.88c-7.07,0-12.85-6.48-12.85-14.4V51.37C48,43.45,53.81,37,60.88,37Zm-2.37,68,36.64,36.67a14.79,14.79,0,0,0,20.92,0L152.73,105a14.79,14.79,0,0,0,0-20.91L116.08,47.43a14.79,14.79,0,0,0-20.92,0L58.51,84.1A14.79,14.79,0,0,0,58.51,105Z" transform="translate(-48.02 -36.97)"/><path class="cls-2" d="M185.8,60h8.73a23.79,23.79,0,0,1,1.06,3.08q0,.22,12.76,41.74-5,11.92-5.09,12.31a29.12,29.12,0,0,1-1.23-3.86q-8.56-27.8-14.43-47.05-.11-.17-1.9-6.15Zm51.41,0h1.68a24.33,24.33,0,0,1,1.45,3.3q.11.22,17.68,41.51,5,11.86,5.43,12.87h.06l14.77-47.27.06-.06H287l.11.06q-14.72,47.39-15.44,49.68-6,19.47-6.27,20.08h-1.57s-1.53-3.54-4.48-10.52q-21-49.57-21.26-50.07-16.56,38.38-19.64,45.37-5.93,13.71-6.6,15.22H210.3a22.65,22.65,0,0,1-1-3.08q-2.13-6.71-2.13-7,7.27-17.62,16.22-38.27l12.81-29.82A9.6,9.6,0,0,1,237.21,60Z" transform="translate(-48.02 -36.97)"/><path class="cls-2" d="M301.66,60.1h50.63s.06,0,.06.11v7.66c0,.08,0,.11-.06.11h-42V93.16H344.8c.07,0,.11,0,.11.06v7.72s0,.06-.11.06H301.66c-.08,0-.11,0-.11-.06V60.21A.1.1,0,0,1,301.66,60.1Zm6.6,72.11H351.9a.16.16,0,0,1,.06.11V140c0,.08,0,.11-.06.11H308.26s-.06,0-.06-.11v-7.72C308.21,132.25,308.23,132.21,308.26,132.21Z" transform="translate(-48.02 -36.97)"/><path class="cls-2" d="M365.72,60.16h20.14q15.27,0,22.1,5.15a18.56,18.56,0,0,1,7,9.62,17.35,17.35,0,0,1,.73,4.81,16.72,16.72,0,0,1-5.65,12.48,22.43,22.43,0,0,1-5.87,3.92,3.87,3.87,0,0,1-.84.39v.06a45.59,45.59,0,0,1,9,3.36,23.45,23.45,0,0,1,5.37,3.86q5.82,5.87,5.82,13.09v.56q0,10.74-11.13,17.9a37.53,37.53,0,0,1-19.3,4.81h-8.17a.1.1,0,0,1-.11-.11v-7.66a.1.1,0,0,1,.11-.11h3.24q12.76,0,17.79-3.19a16,16,0,0,0,3.86-3.08,12.58,12.58,0,0,0,3.69-8.62q0-7.78-8.73-12.42a30.12,30.12,0,0,0-5.37-2q-5-1.34-18.07-1.34h-6.21v26.41a82.71,82.71,0,0,1-.62,12.08h-8.78a.1.1,0,0,1-.11-.11V60.27A.1.1,0,0,1,365.72,60.16Zm9.4,7.89V93.61h4.76q13,0,17.51-2.29a16.93,16.93,0,0,0,4.76-3.3,11.77,11.77,0,0,0,3.52-8.34q0-6.94-7.44-10A32.74,32.74,0,0,0,387,68Z" transform="translate(-48.02 -36.97)"/><path class="cls-2" d="M471,60h9.51s.06,0,.06.11V140c0,.08,0,.11-.06.11H471a.1.1,0,0,1-.11-.11V60.1A.1.1,0,0,1,471,60Z" transform="translate(-48.02 -36.97)"/><path class="cls-2" d="M506.42,59.93h1.29q.22.17,5.2,9.85-2.07,14.21-7.5,51.92l-2.69,18.18h-8.45l-.11-.06q8.28-54.44,8.34-54.88,0-.17,3.8-25Zm73.4,0h1.34a24.3,24.3,0,0,1,.78,4.53q.05.34,7.33,48.23,3.91,25.18,4.14,27.13l-.06.06H584.8q-.17,0-.28-1.29-6.27-42.41-7.5-51.3-.28-1.45-.5-3.3h-.06q-.33.67-16.89,32.28L545,143.91h-2.24q-1-1.68-16.84-31.94-.22-.39-7.94-15.11l2-13.59H520q.17.11,3,5.59,19.53,37,19.81,37.76a17,17,0,0,0,1.23,2.13q.45-1,12.2-23.55,22.49-43.14,23.11-44.42A3.93,3.93,0,0,1,579.83,59.93Z" transform="translate(-48.02 -36.97)"/><path class="cls-2" d="M607.46,60h21.6q17.85,0,23.27,2.07a23.94,23.94,0,0,1,5.54,2.46q10,6,10,16.62v.34q0,12.25-12.25,18a29.59,29.59,0,0,1-6.1,1.9q-6.71,1.51-22.77,1.51l-.06-.05V95.23l.06-.11.62.06q2.07,0,7.16.06,12.25,0,17-3.08a12.39,12.39,0,0,0,3.41-2.85,11.74,11.74,0,0,0,2.91-7.5v-.73q0-4.81-4.36-8.9a16.24,16.24,0,0,0-7.67-3.47,62.66,62.66,0,0,0-10.46-.78H617.09V93.22l-.06.11V109.5l.06.11V140c0,.08,0,.11-.06.11h-9.57a.1.1,0,0,1-.11-.11V60.16A.1.1,0,0,1,607.46,60Z" transform="translate(-48.02 -36.97)"/><path class="cls-2" d="M682.6,60.1h50.63s.06,0,.06.11v7.66c0,.08,0,.11-.06.11h-42V93.16h34.46c.07,0,.11,0,.11.06v7.72s0,.06-.11.06H682.6c-.08,0-.11,0-.11-.06V60.21A.1.1,0,0,1,682.6,60.1Zm6.6,72.11h43.64a.16.16,0,0,1,.06.11V140c0,.08,0,.11-.06.11H689.2s-.06,0-.06-.11v-7.72C689.14,132.25,689.16,132.21,689.2,132.21Z" transform="translate(-48.02 -36.97)"/><path class="cls-2" d="M746.66,60.1h18a.1.1,0,0,1,.11.11v7.66a.1.1,0,0,1-.11.11h-18a.1.1,0,0,1-.11-.11V60.21A.1.1,0,0,1,746.66,60.1Zm27.8,0h37.48a.1.1,0,0,1,.11.11v7.66a.1.1,0,0,1-.11.11H784.2V140a.1.1,0,0,1-.11.11h-9.73s-.06,0-.06-.11V72l.06-.11V60.21C774.39,60.14,774.42,60.1,774.46,60.1Z" transform="translate(-48.02 -36.97)"/><path class="cls-2" d="M825.65,60.16h9.29s.06,0,.06.11v46.1q0,11.08.67,12.81a14.72,14.72,0,0,0,4.08,7.55,19.4,19.4,0,0,0,4.87,3.19,33.88,33.88,0,0,0,5.71,2.07,6.05,6.05,0,0,1,1.79.45v7.5l-.06.11a43.68,43.68,0,0,1-6.15-1.12,38.07,38.07,0,0,1-7.38-2.91q-8.11-4.42-11.08-11.75-1.9-4.48-1.9-16.5V60.27A.1.1,0,0,1,825.65,60.16Zm53,0H888a.1.1,0,0,1,.11.11v48.11q0,10.18-3,17.06-3.69,7.67-13.31,12.2a25.52,25.52,0,0,1-5.37,1.73,27,27,0,0,1-4.87.78v-7.61a4.25,4.25,0,0,1,1.51-.34,33.5,33.5,0,0,0,4.75-1.68,18.09,18.09,0,0,0,9.29-9.45,16.41,16.41,0,0,0,1.17-5.15q.34-3.52.34-8V60.27C878.63,60.19,878.65,60.16,878.69,60.16Z" transform="translate(-48.02 -36.97)"/><path class="cls-2" d="M909.52,120.3a42.61,42.61,0,0,0,5.15,6.38,27.45,27.45,0,0,0,5.37,4.08,23.88,23.88,0,0,0,4,1.57v7.55l-.06.06a30.78,30.78,0,0,1-5.76-1.46,30.06,30.06,0,0,1-9.73-6,44.06,44.06,0,0,1-4.87-5.48q-1-1.23-2-2.8S904.29,122.87,909.52,120.3Zm20.42-60.2a27.84,27.84,0,0,1,19.53,7.78,63,63,0,0,1,4.64,4.76q-5.65,3.64-7.55,4.76a51.65,51.65,0,0,0-5.37-5.26A17.51,17.51,0,0,0,929.66,68q-7.83,0-11.52,5.54a8.77,8.77,0,0,0-1.06,4.14q0,6.77,9.4,12.31,2.18,1.46,11.75,7.33a93.85,93.85,0,0,1,8.84,6.6,30,30,0,0,1,4.25,4.42q4.36,5.82,4.36,11v.78a16.85,16.85,0,0,1-4.59,11.25,24.85,24.85,0,0,1-4.25,3.75,31.14,31.14,0,0,1-4.25,2.52,34.05,34.05,0,0,1-6.43,2.07q-1.73.28-2.85.39v-7.67A11.84,11.84,0,0,1,935,132q5.82-1.85,8.56-5.65a11,11,0,0,0,2.07-6.21v-.39q0-5.15-6.55-10.74a87.38,87.38,0,0,0-8.45-6.32q-7.55-4.75-11.53-7.5a53.1,53.1,0,0,1-6-4.7q-5.6-5.76-5.59-12.2v-.45q0-7.22,6.32-12.53A26,26,0,0,1,929.94,60.1Z" transform="translate(-48.02 -36.97)"/></svg>